<svg width="58" height="59" viewBox="0 0 58 59" fill="none" xmlns="http://www.w3.org/2000/svg">
<path d="M3 51.5833V8.88889C3 5.63654 6.32588 3 10.4286 3H52.7714C54.0023 3 55 3.79097 55 4.76667V56" fill="white"/>
<path d="M3 51.5833V8.88889C3 5.63654 6.32588 3 10.4286 3H52.7714C54.0023 3 55 3.79097 55 4.76667V56" stroke="black" stroke-width="5.64429" stroke-linecap="round"/>
<path d="M17.8571 14.7778H40.1429Z" fill="white"/>
<path d="M17.8571 14.7778H40.1429" stroke="black" stroke-width="5.64429" stroke-linecap="round"/>
<path d="M8.57143 38.3333H55Z" fill="white"/>
<path d="M8.57143 38.3333H55" stroke="black" stroke-width="5.64429" stroke-linecap="round"/>
<path d="M8.57143 47.1667H55Z" fill="white"/>
<path d="M8.57143 47.1667H55" stroke="black" stroke-width="5.64429" stroke-linecap="round"/>
<path d="M8.57143 56H55Z" fill="white"/>
<path d="M8.57143 56H55" stroke="black" stroke-width="5.64429" stroke-linecap="round"/>
<path d="M8.57143 47.1667C4.85714 47.1667 3 45.1892 3 42.75C3 40.3108 4.85714 38.3333 8.57143 38.3333" fill="white"/>
<path d="M8.57143 47.1667C4.85714 47.1667 3 45.1892 3 42.75C3 40.3108 4.85714 38.3333 8.57143 38.3333" stroke="black" stroke-width="5.64429" stroke-linecap="round" stroke-linejoin="round"/>
<path d="M8.57143 56C4.85714 56 3 54.0225 3 51.5833C3 49.1441 4.85714 47.1667 8.57143 47.1667" fill="white"/>
<path d="M8.57143 56C4.85714 56 3 54.0225 3 51.5833C3 49.1441 4.85714 47.1667 8.57143 47.1667" stroke="black" stroke-width="5.64429" stroke-linecap="round" stroke-linejoin="round"/>
</svg>
