<svg width="57" height="57" viewBox="0 0 57 57" fill="none" xmlns="http://www.w3.org/2000/svg">
<path d="M54.074 28.037C54.074 13.6572 42.4167 2 28.037 2C13.6572 2 2 13.6572 2 28.037C2 42.4167 13.6572 54.074 28.037 54.074" fill="white"/>
<path d="M54.074 28.037C54.074 13.6572 42.4167 2 28.037 2C13.6572 2 2 13.6572 2 28.037C2 42.4167 13.6572 54.074 28.037 54.074" stroke="black" stroke-width="3.90555" stroke-linecap="round" stroke-linejoin="round"/>
<path d="M30.6407 2.12842C30.6407 2.12842 38.4518 12.4147 38.4518 28.0368Z" fill="white"/>
<path d="M30.6407 2.12842C30.6407 2.12842 38.4518 12.4147 38.4518 28.0368" stroke="black" stroke-width="3.90555" stroke-linecap="round" stroke-linejoin="round"/>
<path d="M25.4333 53.9454C25.4333 53.9454 17.6222 43.659 17.6222 28.0368C17.6222 12.4147 25.4333 2.12842 25.4333 2.12842" fill="white"/>
<path d="M25.4333 53.9454C25.4333 53.9454 17.6222 43.659 17.6222 28.0368C17.6222 12.4147 25.4333 2.12842 25.4333 2.12842" stroke="black" stroke-width="3.90555" stroke-linecap="round" stroke-linejoin="round"/>
<path d="M3.6394 37.15H28.037Z" fill="white"/>
<path d="M3.6394 37.15H28.037" stroke="black" stroke-width="3.90555" stroke-linecap="round" stroke-linejoin="round"/>
<path d="M3.6394 18.9241H52.4347Z" fill="white"/>
<path d="M3.6394 18.9241H52.4347" stroke="black" stroke-width="3.90555" stroke-linecap="round" stroke-linejoin="round"/>
<path fill-rule="evenodd" clip-rule="evenodd" d="M53.7587 43.4442C55.0445 44.2349 54.9653 46.1598 53.6411 46.3101L46.9584 47.0675L43.961 53.088C43.3671 54.281 41.5312 53.697 41.2276 52.2184L37.9592 36.2941C37.7028 35.0444 38.826 34.2578 39.9125 34.9264L53.7587 43.4442Z" fill="white" stroke="black" stroke-width="3.90555"/>
</svg>
