<svg width="58" height="58" viewBox="0 0 58 58" fill="none" xmlns="http://www.w3.org/2000/svg">
<path d="M55.68 17.6333V41.0467C55.68 49.1284 49.1284 55.68 41.0467 55.68H17.6333C9.55158 55.68 3 49.1284 3 41.0467V17.6333C3 9.55158 9.55158 3 17.6333 3H41.0467C49.1284 3 55.68 9.55158 55.68 17.6333Z" fill="white" stroke="black" stroke-width="4.39" stroke-linecap="round" stroke-linejoin="round"/>
<path d="M14.7067 43.9733V33.73V23.4867" fill="white"/>
<path d="M14.7067 43.9733V33.73V23.4867" stroke="black" stroke-width="4.39" stroke-linecap="round" stroke-linejoin="round"/>
<path d="M26.4133 43.9733V34.4617ZM26.4133 23.4867V34.4617ZM26.4133 34.4617C26.4133 23.4867 43.9733 23.4867 43.9733 34.4617V43.9733" fill="white"/>
<path d="M26.4133 43.9733V34.4617M26.4133 23.4867V34.4617M26.4133 34.4617C26.4133 23.4867 43.9733 23.4867 43.9733 34.4617V43.9733" stroke="black" stroke-width="4.39" stroke-linecap="round" stroke-linejoin="round"/>
<path d="M14.7067 14.7359L14.7359 14.7034Z" fill="white"/>
<path d="M14.7067 14.7359L14.7359 14.7034" stroke="black" stroke-width="4.39" stroke-linecap="round" stroke-linejoin="round"/>
</svg>
